<svg width="16" height="24" viewBox="0 0 16 24" fill="none" xmlns="http://www.w3.org/2000/svg">
<path d="M1.52523 20.6624H3.28159V24H1.52523V20.6624Z" fill="#191D1E"/>
<path d="M14.1757 20.6624H15.932V24H14.1757V20.6624Z" fill="#191D1E"/>
<path d="M7.85045 6.67641V24H9.60681V4.46996C9.17378 5.20247 8.64569 5.88549 8.0282 6.50297C7.96956 6.56161 7.91027 6.61941 7.85045 6.67641Z" fill="#191D1E"/>
<path d="M4.68789 24H6.44425V7.80014C5.88864 8.16914 5.30073 8.48067 4.68789 8.73169V24Z" fill="#191D1E"/>
<path d="M11.0131 0H12.7694V24H11.0131V0Z" fill="#191D1E"/>
<path d="M4.62381 0C4.29227 1.79705 2.71366 3.16261 0.82211 3.16261H0.734594V8.08158H0.82211C5.4295 8.08158 9.21977 4.51659 9.57892 0L4.62381 0Z" fill="#191D1E"/>
</svg>
