<svg width="24" height="24" viewBox="0 0 24 24" fill="none" xmlns="http://www.w3.org/2000/svg">
<g clip-path="url(#clip0_526_29)">
<path d="M24 9.53572C23.9981 7.87961 22.6561 6.5376 21 6.53572H12.8571C11.201 6.5376 9.85903 7.87961 9.85715 9.53572V14.6786C9.85903 16.3347 11.201 17.6767 12.8571 17.6786H15.4286C15.5422 17.6786 15.6512 17.7238 15.7316 17.8041L19.7143 21.7868V18.1071C19.7143 17.8705 19.9062 17.6786 20.1429 17.6786H21C22.6561 17.6767 23.9981 16.3347 24 14.6786V9.53572ZM21.8571 15.1071H12C11.7633 15.1071 11.5714 14.9153 11.5714 14.6786C11.5714 14.4419 11.7633 14.25 12 14.25H21.8571C22.0938 14.25 22.2857 14.4419 22.2857 14.6786C22.2857 14.9153 22.0938 15.1071 21.8571 15.1071ZM21.8571 12.5357H12C11.7633 12.5357 11.5714 12.3438 11.5714 12.1071C11.5714 11.8705 11.7633 11.6786 12 11.6786H21.8571C22.0938 11.6786 22.2857 11.8705 22.2857 12.1071C22.2857 12.3438 22.0938 12.5357 21.8571 12.5357ZM21.8571 9.96429H12C11.7633 9.96429 11.5714 9.7724 11.5714 9.53572C11.5714 9.29904 11.7633 9.10715 12 9.10715H21.8571C22.0938 9.10715 22.2857 9.29904 22.2857 9.53572C22.2857 9.7724 22.0938 9.96429 21.8571 9.96429Z" fill="#191D1E"/>
<path d="M7.41127 13.5184C7.49163 13.4381 7.60066 13.3929 7.71429 13.3929H9V9.53571C9.00251 7.40646 10.7279 5.68108 12.8571 5.67857H14.1429V5.25C14.141 3.59389 12.799 2.25188 11.1429 2.25H3C1.34389 2.25188 0.00188337 3.59389 0 5.25V10.3929C0.00188337 12.049 1.34389 13.391 3 13.3929H3.85714C4.09382 13.3929 4.28571 13.5848 4.28571 13.8214V16.644L7.41127 13.5184ZM1.71429 4.82143H10.7143C10.951 4.82143 11.1429 5.01332 11.1429 5.25C11.1429 5.48668 10.951 5.67857 10.7143 5.67857H1.71429C1.47761 5.67857 1.28571 5.48668 1.28571 5.25C1.28571 5.01332 1.47761 4.82143 1.71429 4.82143ZM1.71429 7.39286H8.14286C8.37953 7.39286 8.57143 7.58475 8.57143 7.82143C8.57143 8.05811 8.37953 8.25 8.14286 8.25H1.71429C1.47761 8.25 1.28571 8.05811 1.28571 7.82143C1.28571 7.58475 1.47761 7.39286 1.71429 7.39286ZM1.71429 10.8214C1.47761 10.8214 1.28571 10.6295 1.28571 10.3929C1.28571 10.1562 1.47761 9.96429 1.71429 9.96429H7.71429C7.95096 9.96429 8.14286 10.1562 8.14286 10.3929C8.14286 10.6295 7.95096 10.8214 7.71429 10.8214H1.71429Z" fill="#191D1E"/>
</g>
<defs>
<clipPath id="clip0_526_29">
<rect width="24" height="24" fill="white"/>
</clipPath>
</defs>
</svg>
