<svg width="25" height="24" viewBox="0 0 25 24" fill="none" xmlns="http://www.w3.org/2000/svg">
<g clip-path="url(#clip0_526_1246)">
<path d="M24.0068 12.9642H15.689C15.3254 12.9642 15.0291 13.2606 15.0291 13.624C15.0291 13.8091 15.1078 13.9759 15.2305 14.0962L21.0875 19.9532C21.2078 20.0828 21.3816 20.1639 21.5714 20.1639C21.8006 20.1639 22.0019 20.0481 22.12 19.8722C23.56 18.2007 24.486 16.0779 24.6527 13.742C24.662 13.7027 24.6666 13.6633 24.6666 13.6239C24.6667 13.2606 24.3726 12.9642 24.0068 12.9642Z" fill="#191D1E"/>
<path d="M13.1771 1.00705C12.8136 1.00927 12.5196 1.30337 12.5196 1.66681V10.9107C12.5196 11.2765 12.8136 11.5728 13.1771 11.5728H22.4234C22.7869 11.5728 23.0831 11.2765 23.0831 10.9107C22.7566 5.59088 18.4993 1.33352 13.1771 1.00705Z" fill="#191D1E"/>
<path d="M18.2586 19.4139L11.4386 12.5938C11.3229 12.4757 11.2534 12.3114 11.2534 12.1331L11.251 2.50023C11.251 2.13679 10.957 1.84276 10.5935 1.84276C5.05369 2.18079 0.666687 6.78299 0.666687 12.4063C0.666687 18.2518 5.40564 22.9929 11.251 22.9929C13.9179 22.9929 16.3533 22.0068 18.2146 20.3792C18.3582 20.2588 18.4485 20.0783 18.4485 19.8769C18.4485 19.6986 18.3766 19.5342 18.2586 19.4139Z" fill="#191D1E"/>
</g>
<defs>
<clipPath id="clip0_526_1246">
<rect width="24" height="24" fill="white" transform="translate(0.666687)"/>
</clipPath>
</defs>
</svg>
