<svg width="22" height="24" viewBox="0 0 22 24" fill="none" xmlns="http://www.w3.org/2000/svg">
<path d="M10.9999 7.42766C8.47833 7.42766 6.427 9.47898 6.427 12.0003C6.427 14.5219 8.47833 16.5732 10.9999 16.5732C13.5212 16.5732 15.5725 14.5219 15.5725 12.0003C15.5725 9.47898 13.5212 7.42766 10.9999 7.42766ZM13.7148 11.1392L10.4388 14.4151C10.3013 14.5526 10.121 14.6215 9.94079 14.6215C9.76061 14.6215 9.58044 14.5528 9.44292 14.4151L8.19104 13.1632C7.91601 12.8884 7.91601 12.4425 8.19104 12.1675C8.46588 11.8925 8.91174 11.8925 9.18676 12.1675L9.94079 12.9215L12.719 10.1435C12.9939 9.86845 13.4397 9.86845 13.7148 10.1435C13.9898 10.4183 13.9898 10.8642 13.7148 11.1392Z" fill="#191D1E"/>
<path d="M21.1948 6.51176L21.194 6.49308C21.1836 6.26256 21.1766 6.01866 21.1724 5.7473C21.1528 4.424 20.1009 3.3294 18.7774 3.25542C16.018 3.10143 13.8834 2.20165 12.0595 0.423888L12.0439 0.409056C11.449 -0.136413 10.5516 -0.136413 9.95651 0.409056L9.94094 0.423888C8.11704 2.20165 5.9824 3.10143 3.22301 3.25561C1.89971 3.3294 0.847586 4.424 0.827994 5.74748C0.823966 6.01701 0.816825 6.26091 0.806388 6.49308L0.805289 6.53648C0.75164 9.35026 0.684989 12.8521 1.85649 16.0307C2.50066 17.7786 3.47624 19.298 4.75596 20.5469C6.21348 21.9693 8.12253 23.0985 10.43 23.9031C10.5051 23.9293 10.5831 23.9505 10.6626 23.9664C10.7746 23.9888 10.8874 23.9999 11.0002 23.9999C11.113 23.9999 11.226 23.9888 11.3379 23.9664C11.4173 23.9505 11.4959 23.9291 11.5713 23.9027C13.8761 23.0967 15.7831 21.9669 17.2393 20.5447C18.5185 19.2954 19.4941 17.7756 20.1388 16.0274C21.3147 12.8393 21.2482 9.33085 21.1948 6.51176ZM10.9998 17.9815C7.70175 17.9815 5.01872 15.2984 5.01872 12.0003C5.01872 8.70225 7.70175 6.01921 10.9998 6.01921C14.2977 6.01921 16.981 8.70225 16.981 12.0003C16.981 15.2984 14.2977 17.9815 10.9998 17.9815Z" fill="#191D1E"/>
</svg>
