<svg width="232" height="291" viewBox="0 0 232 291" fill="none" xmlns="http://www.w3.org/2000/svg">
<g opacity="0.2">
<path d="M100 210.055L172.755 148.365L180.541 166.275L131.464 207.888L194.85 247.734L179.406 210.319L167.352 220.54L160.234 204.291L186.925 181.66L218.436 253.732L197.341 271.618L100 210.055Z" fill="#FF8324"/>
</g>
<path d="M68 61.9873L105.859 40.1295L107.903 48.8431L82.3648 63.5874L107.683 86.7459L103.783 68.6103L97.511 72.2317L95.6325 64.322L109.522 56.3031L117.827 91.3825L106.85 97.7199L68 61.9873Z" fill="#FF8324"/>
<g opacity="0.1">
<path d="M177.995 0L214.585 7.80657L210.89 14.5162L186.208 9.25021L189.026 38.4801L196.942 24.7187L190.88 23.4253L194.219 17.3214L207.643 20.1854L192.816 47.2411L182.207 44.9777L177.995 0Z" fill="#FF8324"/>
</g>
<g opacity="0.1">
<path d="M36.7227 215L66.6442 246.871L58.6271 250.85L38.4433 229.351L21.6745 259.286L38.4415 251.351L33.4841 246.07L40.7563 242.436L51.7334 254.128L19.4755 270.221L10.8001 260.98L36.7227 215Z" fill="#FF8324"/>
</g>
</svg>
